<?xml version="1.0" encoding="UTF-8"?>
<svg id="_Слой_1" data-name="Слой 1" xmlns="http://www.w3.org/2000/svg" viewBox="0 0 368.65 67.69">
  <defs>
    <style>
      .cls-1 {
        stroke: #000;
        stroke-miterlimit: 10;
      }

      .cls-2 {
        stroke-width: 0px;
      }
    </style>
  </defs>
  <path class="cls-2" d="m226.04,33.13v-13.37h9.58v44.24h-9.15c-.15-.36-.41-1-.68-1.65-9.87,5.01-18.05,2.99-22.94-6.95-3.09-6.28-2.45-13.19,2.31-18.9,4.93-5.92,10.15-6.66,20.89-3.37Zm.26,14.49c-.07-4.79-2.98-7.94-7.34-7.95-4.78,0-8.06,3.45-7.98,8.41.08,4.67,3.47,8.11,7.96,8.06,4.44-.05,7.44-3.52,7.36-8.52Z"/>
  <path class="cls-2" d="m121.85,64.19h-9.56c-6.51-14.71-12.99-29.32-19.64-44.34h10.73c4.41,10.28,8.87,20.66,13.73,31.99,4.76-11.18,9.13-21.46,13.57-31.87h10.76c-6.65,15-13.11,29.6-19.59,44.22Z"/>
  <path class="cls-2" d="m278.74,19.94h10.77c-6.65,15.01-13.12,29.62-19.59,44.23h-9.56c-6.48-14.58-12.92-29.06-19.58-44.06h10.79c4.32,10.1,8.76,20.51,13.59,31.81,4.77-11.23,9.18-21.61,13.58-31.98Z"/>
  <path class="cls-2" d="m327.95,48.19c-.14,9.68-7.84,17.06-17.56,16.84-9.93-.23-17.14-7.59-17.04-17.39.1-9.6,7.78-16.94,17.58-16.82,9.79.12,17.16,7.64,17.02,17.36Zm-9.66-.5c.04-4.56-3.15-8.02-7.38-8.02-4.52,0-7.78,3.38-7.88,8.15-.09,4.61,3.33,8.31,7.71,8.31,4.39,0,7.51-3.49,7.55-8.44Z"/>
  <path class="cls-2" d="m179.85,48.47c-.2,9.35-7.99,16.75-17.39,16.55-10.15-.23-17.43-7.71-17.18-17.66.24-9.59,7.89-16.65,17.87-16.5,9.62.14,16.91,7.84,16.7,17.62Zm-9.63-.9c-.03-4.54-3.26-7.94-7.51-7.92-4.52.03-7.68,3.43-7.66,8.26.01,4.79,3.35,8.33,7.73,8.21,4.44-.12,7.48-3.61,7.45-8.55Z"/>
  <path class="cls-2" d="m343.74,64.27h-11.18c4.27-5.91,8.19-11.33,12.22-16.9-3.58-5.16-7.04-10.15-10.9-15.72h11.16c1.67,2.43,3.52,5.14,5.63,8.22,2.05-2.98,3.84-5.58,5.76-8.36h11.02c-3.78,5.49-7.27,10.56-10.92,15.86,3.96,5.47,7.85,10.83,12.12,16.73h-11.26c-2.01-2.76-4.14-5.69-6.7-9.21-2.42,3.26-4.61,6.21-6.96,9.38Z"/>
  <path class="cls-2" d="m195.23,64.21h-9.27V31.58h9.27v32.63Z"/>
  <path class="cls-2" d="m185.87,27.29v-7.58h9.36v7.58h-9.36Z"/>
  <path class="cls-2" d="m25.49,1.05C7.41,5.66-3.56,24.12,1.05,42.2c4.61,18.08,23.07,29.05,41.15,24.44,3.36-.86,6.48-2.19,9.3-3.92l-6.55-5.74c-1.5.72-3.09,1.31-4.77,1.73-13.71,3.49-27.71-4.82-31.2-18.53-3.49-13.71,4.82-27.71,18.53-31.21,13.71-3.49,27.71,4.82,31.21,18.53,2.63,10.3-1.42,20.77-9.4,26.82l6.25,5.48c9.65-8.1,14.4-21.3,11.08-34.31C62.03,7.41,43.57-3.56,25.49,1.05Z"/>
  <path class="cls-1" d="m70.15,39.16l-1.14,5.43c5.56,5.83,7.81,11.78,5.94,14.23-1.1,1.44-3.87,1.85-7.41,1.1-4.25-.91-9.06-3.29-13.55-6.72-4.49-3.43-8.06-7.44-10.06-11.29-1.66-3.21-2-5.99-.9-7.44.95-1.25,3.07-1.71,5.86-1.35,4.1.53,9.66,2.82,15.09,6.97.69.53,1.34,1.06,1.97,1.6l.12-5.88c-.08-.06.82.61.74.56-11.22-8.56-23.04-10.59-27.51-4.74-2.29,3.01-2.13,7.42.47,12.42,2.31,4.46,6.35,9.02,11.38,12.86,5.03,3.83,10.5,6.52,15.41,7.57.64.14,1.27.24,1.88.32,4.61.59,8.2-.5,10.23-3.16,3.99-5.24.33-14.48-8.52-22.49Z"/>
</svg>